<?xml version="1.0" encoding="UTF-8"?><svg id="a" xmlns="http://www.w3.org/2000/svg" width="1000" height="1000" viewBox="0 0 1000 1000"><path d="M-178-170,932.47,442.96h-35.05c-4.02,0-14.43,9.86-14.43,14.43v274.18c-64.53.45-129.68-.32-194.52-.07-40.87.16-82.64.68-123.7,1.51-8.86.18-17.03-1.94-26.78.58-17.03,4.39-17.78,34.29,7.55,36.52,120.42-1.08,241.28,1.9,361.43-1.5,4.38-.6,14.5-10.81,14.5-14.36v-272.81c17.98-1.39,38.02,1.6,55.67.62,24.5-1.36,28.98-22.26,14.45-39.82-22.65-27.36-58.7-59.58-84.7-85.72-43.62-43.88-88.58-86.39-131.76-130.73-12.12-9.83-22.48-11.19-34.42,0-42.02,50.98-122.09,100.76-138.79,166.31-16.5,64.73-22.75,134.75-39.52,199.61-2.12,8.19-10.48,41.21-18.47,43.45-1.59.45-3.1.56-4.52-.46-4.93-3.07-12.93-30.67-14.73-37.52-13.4-51.26-24.96-169.43-61.35-204.59-42.04-40.61-75.54,19.15-86.46,54.81-15.18,49.58-18.2,104.02-33.31,153.6-3,9.85-15.04,48.28-28.78,30.16-20.47-27-31.48-131.18-41.55-170.1-9.15-35.38-39.97-111.07-87.09-71.08-32.01,27.17-36.94,89.7-51.14,127.52-19.79,52.7-73.82,26.05-117.07,32.74-14.36,2.22-19.29,20.85-9.03,30.84,3.16,3.08,11.35,5.7,15.8,6.19,19.23,2.09,62.86,1.77,82.3-.18,71.27-7.14,68.09-92.7,88.15-142.74,5.81-14.5,15.16-35.52,27.94-12.86,9.95,17.64,17.17,56.27,21.8,77.15,9.28,41.84,20.19,142.28,59.32,164.7,13.04,7.47,30.03,6.92,42.1-2.25,46.77-35.53,48.82-173.15,72.86-229.49,2.47-5.78,9.98-21.88,17.66-20.35,8.43,5.75,12.54,17.46,15.59,26.91,18.42,56.9,25.56,169.23,60.26,213.23,14.23,18.04,37.31,24.79,54.95,7.02,25.85-26.04,35.91-86.22,43.4-121.63,9.1-43.05,15.41-87.11,25-130.2,3.41-15.33,5.2-32.26,16.04-44.44l105.36-105.01,175.04,175.82Z" fill="#fff"/><path d="M932.47,442.96l-175.04-175.82-105.36,105.01c-10.84,12.17-12.62,29.1-16.04,44.44-9.59,43.09-15.9,87.15-25,130.2-7.49,35.42-17.55,95.59-43.4,121.63-17.64,17.77-40.72,11.02-54.95-7.02-34.7-44-41.84-156.33-60.26-213.23-3.06-9.44-7.16-21.16-15.59-26.91-7.69-1.53-15.2,14.57-17.66,20.35-24.05,56.34-26.1,193.96-72.86,229.49-12.07,9.17-29.06,9.72-42.1,2.25-39.13-22.42-50.04-122.86-59.32-164.7-4.63-20.88-11.86-59.51-21.8-77.15-12.78-22.66-22.13-1.64-27.94,12.86-20.06,50.05-16.88,135.6-88.15,142.74-19.44,1.95-63.07,2.26-82.3.18-4.45-.48-12.64-3.11-15.8-6.19-10.26-9.99-5.34-28.62,9.03-30.84,43.25-6.69,97.28,19.97,117.07-32.74,14.2-37.82,19.13-100.35,51.14-127.52,47.11-39.99,77.94,35.69,87.09,71.08,10.06,38.92,21.08,143.11,41.55,170.1,13.74,18.12,25.78-20.31,28.78-30.16,15.11-49.58,18.13-104.02,33.31-153.6,10.92-35.66,44.42-95.42,86.46-54.81,36.39,35.16,47.94,153.32,61.35,204.59,1.79,6.85,9.79,34.45,14.73,37.52,1.42,1.02,2.93.9,4.52.46,7.99-2.24,16.35-35.26,18.47-43.45,16.77-64.87,23.02-134.88,39.52-199.61,16.71-65.55,96.77-115.33,138.79-166.31,11.94-11.19,22.3-9.82,34.42,0,43.19,44.35,88.14,86.86,131.76,130.73,25.99,26.15,62.05,58.36,84.7,85.72,14.53,17.55,10.05,38.46-14.45,39.82-17.65.98-37.69-2-55.67-.62v272.81c0,3.55-10.12,13.76-14.5,14.36-120.16,3.4-241.01.42-361.43,1.5-25.32-2.24-24.58-32.13-7.55-36.52,9.75-2.51,17.92-.4,26.78-.58,41.06-.83,82.83-1.35,123.7-1.51,64.85-.25,129.99.52,194.52.07v-274.18c0-4.57,10.41-14.43,14.43-14.43h35.05Z"/></svg>